<?xml version="1.0" encoding="utf-8"?>
<!-- Generator: Adobe Illustrator 28.3.0, SVG Export Plug-In . SVG Version: 6.00 Build 0)  -->
<svg version="1.1" id="Layer_1" xmlns="http://www.w3.org/2000/svg" xmlns:xlink="http://www.w3.org/1999/xlink" x="0px" y="0px"
	 viewBox="0 0 1920 1080" style="enable-background:new 0 0 1920 1080;" xml:space="preserve">
<style type="text/css">
	.st0{fill:#1A1A1A;}
	.st1{fill:url(#SVGID_1_);}
	.st2{fill:#FFFFFF;}
	.st3{fill:#F7941D;}
</style>
<rect x="0.5" class="st0" width="1920" height="1080"/>
<g>
	<g>
		<linearGradient id="SVGID_1_" gradientUnits="userSpaceOnUse" x1="523.162" y1="541.36" x2="1392.4465" y2="541.36">
			<stop  offset="7.672736e-02" style="stop-color:#FFFFFF"/>
			<stop  offset="0.7309" style="stop-color:#000000"/>
		</linearGradient>
		<path class="st1" d="M802,534.4V604h7.6c26.6,0,48.1-21.5,48.1-48.1v-77.2l0,0C826.9,478.7,802,503.6,802,534.4z"/>
		<path class="st2" d="M876.6,478.7h-7.6v77.2c0,26.6,21.5,48.1,48.1,48.1h7.6v-77.2C924.8,500.2,903.2,478.7,876.6,478.7z"/>
		<path class="st2" d="M948.6,492v112h7.6c26.6,0,48.1-21.5,48.1-48.1v-112h-7.6C970.1,443.9,948.6,465.4,948.6,492z"/>
		<path class="st2" d="M1023.2,478.7h-7.6v77.2c0,26.6,21.5,48.1,48.1,48.1h7.6v-77.2C1071.3,500.2,1049.8,478.7,1023.2,478.7z"/>
		<path class="st2" d="M1101.2,478.7h-7.6v77.2c0,26.6,21.5,48.1,48.1,48.1h7.6v-77.2C1149.3,500.2,1127.8,478.7,1101.2,478.7z"/>
		<path class="st2" d="M1160.7,526.8V604h7.6c26.6,0,48.1-21.5,48.1-48.1v-77.2h-7.6C1182.3,478.7,1160.7,500.2,1160.7,526.8z"/>
		<path class="st2" d="M1246.3,443.9h-7.6v104.4c0,30.8,24.9,55.7,55.7,55.7l0,0V492C1294.4,465.4,1272.9,443.9,1246.3,443.9z"/>
		<path class="st2" d="M1305.8,478.7V604c30.8,0,55.7-24.9,55.7-55.7v-13.9C1361.5,503.6,1336.6,478.7,1305.8,478.7z"/>
		<path class="st2" d="M769.9,480.4h8.3v70.9c0,29.1-23.6,52.6-52.6,52.6h-8.3v-70.9C717.3,504,740.8,480.4,769.9,480.4z"/>
		<path class="st2" d="M558.5,480.4L558.5,480.4v93.1c0,16.8,13.6,30.5,30.5,30.5l0,0c16.8,0,30.5-13.6,30.5-30.5v-32.2
			C619.4,507.7,592.1,480.4,558.5,480.4z"/>
		<path class="st2" d="M692.6,479.6L692.6,479.6c-33.6,0-60.9,27.3-60.9,60.9v1.7l0,0C665.3,542.2,692.6,513.2,692.6,479.6z"/>
		<path class="st2" d="M631.7,543.1c0,33.6,27.3,60.9,60.9,60.9h1.7l0,0C694.3,570.4,665.3,543.1,631.7,543.1z"/>
	</g>
	<g>
		<path class="st2" d="M802,534.4V604h7.6c26.6,0,48.1-21.5,48.1-48.1v-77.2l0,0C826.9,478.7,802,503.6,802,534.4z"/>
		<path class="st2" d="M876.6,478.7h-7.6v77.2c0,26.6,21.5,48.1,48.1,48.1h7.6v-77.2C924.8,500.2,903.2,478.7,876.6,478.7z"/>
		<path class="st2" d="M948.6,492v112h7.6c26.6,0,48.1-21.5,48.1-48.1v-112h-7.6C970.1,443.9,948.6,465.4,948.6,492z"/>
		<path class="st2" d="M1023.2,478.7h-7.6v77.2c0,26.6,21.5,48.1,48.1,48.1h7.6v-77.2C1071.3,500.2,1049.8,478.7,1023.2,478.7z"/>
		<path class="st2" d="M1101.2,478.7h-7.6v77.2c0,26.6,21.5,48.1,48.1,48.1h7.6v-77.2C1149.3,500.2,1127.8,478.7,1101.2,478.7z"/>
		<path class="st2" d="M1160.7,526.8V604h7.6c26.6,0,48.1-21.5,48.1-48.1v-77.2h-7.6C1182.3,478.7,1160.7,500.2,1160.7,526.8z"/>
		<path class="st2" d="M1246.3,443.9h-7.6v104.4c0,30.8,24.9,55.7,55.7,55.7l0,0V492C1294.4,465.4,1272.9,443.9,1246.3,443.9z"/>
		<path class="st2" d="M1305.8,478.7V604c30.8,0,55.7-24.9,55.7-55.7v-13.9C1361.5,503.6,1336.6,478.7,1305.8,478.7z"/>
		<path class="st2" d="M769.9,480.4h8.3v70.9c0,29.1-23.6,52.6-52.6,52.6h-8.3v-70.9C717.3,504,740.8,480.4,769.9,480.4z"/>
		<path class="st2" d="M558.5,480.4L558.5,480.4v93.1c0,16.8,13.6,30.5,30.5,30.5l0,0c16.8,0,30.5-13.6,30.5-30.5v-32.2
			C619.4,507.7,592.1,480.4,558.5,480.4z"/>
		<path class="st2" d="M692.6,479.6L692.6,479.6c-33.6,0-60.9,27.3-60.9,60.9v1.7l0,0C665.3,542.2,692.6,513.2,692.6,479.6z"/>
		<path class="st2" d="M631.7,543.1c0,33.6,27.3,60.9,60.9,60.9h1.7l0,0C694.3,570.4,665.3,543.1,631.7,543.1z"/>
	</g>
</g>
<path class="st3" d="M754.2,401.6L754.2,401.6c-16.8,0-30.5,13.6-30.5,30.5s13.6,30.5,30.5,30.5l0,0c16.8,0,30.5-13.6,30.5-30.5
	S771,401.6,754.2,401.6z"/>
<g>
	<g>
		<path class="st3" d="M578.2,677.6v-50.4h11.1v50.4H578.2z"/>
		<path class="st3" d="M692,677.6l-24.4-32v32h-10.9v-50.4h10.2l23.6,31v-31h10.9v50.4H692z"/>
		<path class="st3" d="M779.5,637.2V648h24v10h-24v19.5h-11.1v-50.4h38.4v10H779.5z"/>
		<path class="st3" d="M919.9,662.5c-1.3,3.1-3.2,5.9-5.6,8.3s-5.2,4.2-8.5,5.6s-6.9,2-10.8,2c-3.9,0-7.5-0.7-10.7-2
			c-3.3-1.4-6.1-3.2-8.5-5.5c-2.4-2.3-4.2-5.1-5.5-8.2c-1.3-3.1-2-6.5-2-10.1v-0.1c0-3.6,0.7-7,2-10.1c1.3-3.1,3.2-5.9,5.6-8.3
			s5.2-4.2,8.5-5.6s6.9-2,10.8-2s7.5,0.7,10.7,2c3.3,1.4,6.1,3.2,8.5,5.5c2.4,2.3,4.2,5.1,5.5,8.2s2,6.5,2,10.1v0.1
			C921.9,656,921.2,659.3,919.9,662.5z M910.3,652.4c0-2.2-0.4-4.2-1.1-6.1c-0.7-1.9-1.8-3.6-3.2-5s-3-2.6-4.9-3.4
			c-1.9-0.8-3.9-1.3-6.1-1.3c-2.3,0-4.3,0.4-6.2,1.2c-1.8,0.8-3.4,1.9-4.8,3.4s-2.3,3.1-3.1,5c-0.8,1.9-1.1,3.9-1.1,6.1v0.1
			c0,2.2,0.4,4.2,1.1,6.1c0.7,1.9,1.8,3.6,3.2,5s3,2.6,4.8,3.4s3.9,1.3,6.2,1.3c2.2,0,4.2-0.4,6.1-1.2s3.5-1.9,4.8-3.4
			s2.3-3.1,3.1-5c0.7-1.9,1.1-3.9,1.1-6.1V652.4z"/>
		<path class="st3" d="M1009.4,637.4v40.2h-11.1v-40.2H983v-10.2h41.8v10.2H1009.4z"/>
		<path class="st3" d="M1088.1,677.6v-50.4h37.9v9.9h-27v10.2h23.8v9.9h-23.8v10.6h27.4v9.9L1088.1,677.6L1088.1,677.6z"/>
		<path class="st3" d="M1231.5,673.2c-1.4,1.1-2.9,2-4.6,2.8c-1.7,0.8-3.5,1.4-5.4,1.8s-4.2,0.6-6.6,0.6c-3.7,0-7.1-0.7-10.3-2
			s-5.9-3.2-8.2-5.5c-2.3-2.3-4.1-5.1-5.4-8.2s-1.9-6.5-1.9-10.2v-0.1c0-3.6,0.7-7,1.9-10.1c1.3-3.1,3.1-5.9,5.4-8.3
			s5.1-4.2,8.3-5.6c3.2-1.4,6.8-2,10.7-2c2.3,0,4.5,0.2,6.4,0.6c1.9,0.4,3.7,0.9,5.3,1.6c1.6,0.7,3.1,1.5,4.4,2.5s2.6,2,3.7,3.2
			l-7.1,8.1c-2-1.8-4-3.2-6-4.2s-4.3-1.5-6.9-1.5c-2.1,0-4.1,0.4-5.9,1.2c-1.8,0.8-3.3,1.9-4.6,3.4s-2.3,3.1-3,5
			c-0.7,1.9-1.1,3.9-1.1,6.1v0.1c0,2.2,0.4,4.2,1.1,6.1s1.7,3.6,3,5s2.8,2.6,4.6,3.4s3.8,1.3,5.9,1.3c2.9,0,5.3-0.5,7.3-1.6
			c2-1,4-2.5,5.9-4.3l7.1,7.1C1234.2,670.8,1232.9,672.1,1231.5,673.2z"/>
		<path class="st3" d="M1330.8,677.6v-20.2h-20.4v20.2h-11.1v-50.4h11.1v19.9h20.4v-19.9h11.1v50.4H1330.8z"/>
	</g>
</g>
</svg>
