<?xml version="1.0" standalone="no"?>
<!DOCTYPE svg PUBLIC "-//W3C//DTD SVG 20010904//EN"
 "http://www.w3.org/TR/2001/REC-SVG-20010904/DTD/svg10.dtd">
<svg version="1.0" xmlns="http://www.w3.org/2000/svg"
 width="760.000000pt" height="327.000000pt" viewBox="0 0 760.000000 327.000000"
 preserveAspectRatio="xMidYMid meet">

<g transform="translate(0.000000,327.000000) scale(0.100000,-0.100000)"
fill="#000000" stroke="none">
<path d="M0 1635 l0 -1635 3800 0 3800 0 0 1635 0 1635 -3800 0 -3800 0 0
-1635z m2030 1390 c104 -37 174 -137 174 -249 -1 -161 -128 -276 -290 -263
-241 19 -331 326 -138 473 69 53 170 69 254 39z m2120 -888 c0 -497 -1 -538
-19 -589 -29 -84 -46 -112 -103 -169 -82 -80 -204 -129 -324 -129 l-44 0 0
531 c0 596 -1 591 72 699 78 117 209 188 346 189 l72 1 0 -533z m2323 496 c89
-42 168 -121 210 -210 l32 -68 3 -554 3 -553 -58 7 c-194 24 -342 146 -415
341 -21 57 -22 73 -26 568 l-3 508 93 -4 c78 -3 104 -9 161 -35z m-2027 -288
c64 -18 164 -84 202 -133 42 -52 78 -128 91 -190 7 -34 11 -184 11 -412 l0
-360 -58 0 c-203 0 -377 132 -428 325 -10 37 -14 144 -14 424 l0 374 73 -7
c39 -4 95 -13 123 -21z m1584 -354 c0 -339 -2 -385 -18 -438 -58 -184 -225
-303 -427 -303 l-55 0 0 343 c0 189 5 371 11 407 14 92 49 161 115 231 88 91
190 133 337 138 l37 1 0 -379z m-4636 327 c-17 -131 -44 -202 -109 -294 -88
-123 -216 -200 -370 -223 -60 -9 -60 -9 -14 -10 61 -1 140 -26 221 -68 156
-81 267 -243 285 -415 l6 -58 -34 0 c-183 1 -382 129 -468 301 -162 324 21
718 369 793 36 8 77 15 93 15 26 1 27 0 21 -41z m1466 -300 c0 -189 -4 -369
-10 -402 -35 -215 -217 -366 -441 -366 l-49 0 0 335 c0 360 4 402 51 501 71
151 250 273 402 274 l47 0 0 -342z m341 306 c118 -56 216 -180 239 -303 6 -30
10 -212 10 -414 l0 -360 -77 6 c-101 9 -160 27 -228 73 -101 67 -166 166 -185
284 -5 36 -10 220 -10 408 l0 344 93 -4 c78 -2 102 -8 158 -34z m1930 22 c73
-22 109 -45 175 -108 69 -66 109 -142 124 -235 6 -32 10 -214 10 -405 l0 -348
-47 0 c-72 0 -178 26 -233 56 -59 32 -139 114 -169 172 -47 92 -51 133 -51
519 l0 363 73 0 c39 0 93 -7 118 -14z m1872 -16 c126 -48 240 -168 286 -301
28 -81 38 -245 22 -349 -35 -228 -208 -397 -435 -425 l-56 -7 0 557 0 558 63
-6 c34 -2 88 -15 120 -27z m-6674 5 c203 -48 374 -227 410 -429 18 -96 14
-402 -5 -467 -30 -102 -149 -189 -259 -189 -99 0 -204 69 -246 162 -24 53 -24
53 -27 496 l-3 442 33 0 c18 0 62 -7 97 -15z m1821 -339 c0 -320 -2 -360 -19
-415 -61 -197 -249 -330 -468 -331 l-53 0 0 340 c0 210 4 359 11 392 18 85 74
182 142 243 94 85 190 123 320 124 l67 1 0 -354z m-1670 -1171 l0 -225 -50 0
-50 0 0 225 0 225 50 0 50 0 0 -225z m785 88 c55 -73 103 -133 108 -133 4 0 7
61 7 135 l0 135 45 0 45 0 0 -225 0 -225 -39 0 c-38 0 -41 2 -147 142 l-109
142 -3 -142 -3 -142 -44 0 -45 0 0 226 0 225 42 -3 c42 -3 44 -5 143 -135z
m1135 92 l0 -45 -120 0 -120 0 0 -50 0 -50 105 0 105 0 0 -40 0 -40 -105 0
-105 0 0 -90 0 -90 -45 0 -45 0 0 225 0 225 165 0 165 0 0 -45z m901 17 c79
-41 114 -102 114 -196 -1 -77 -17 -120 -63 -164 -89 -83 -245 -83 -334 0 -113
107 -74 309 72 372 59 26 149 20 211 -12z m1029 -17 l0 -44 -67 -3 -68 -3 -3
-178 -2 -178 -43 3 -42 3 -3 178 -2 177 -65 0 -65 0 0 45 0 45 180 0 180 0 0
-45z m898 -2 l3 -43 -120 0 -121 0 0 -45 0 -45 105 0 105 0 0 -45 0 -45 -105
0 -105 0 0 -45 0 -45 120 0 120 0 0 -45 0 -45 -165 0 -165 0 0 225 0 225 163
-2 162 -3 3 -42z m897 28 c65 -29 71 -44 37 -82 l-29 -32 -31 22 c-63 44 -126
37 -181 -23 -33 -35 -40 -117 -13 -165 38 -70 129 -89 193 -42 36 27 39 26 67
-10 19 -23 22 -33 12 -44 -24 -29 -96 -55 -152 -55 -98 0 -162 34 -206 110
-22 37 -27 57 -27 116 0 61 4 77 30 119 58 94 196 134 300 86z m735 -71 l0
-90 90 0 89 0 3 88 3 87 48 3 47 3 0 -226 0 -226 -47 3 -48 3 -3 88 -3 87 -89
0 -90 0 0 -91 0 -90 -42 3 -43 3 -3 210 c-1 115 0 215 2 222 3 8 22 13 46 13
l40 0 0 -90z"/>
<path d="M3123 950 c-54 -28 -77 -74 -70 -143 4 -42 11 -56 39 -82 67 -61 156
-51 205 24 78 117 -49 264 -174 201z"/>
</g>
</svg>
