<?xml version="1.0" standalone="no"?>
<!DOCTYPE svg PUBLIC "-//W3C//DTD SVG 20010904//EN"
 "http://www.w3.org/TR/2001/REC-SVG-20010904/DTD/svg10.dtd">
<svg version="1.0" xmlns="http://www.w3.org/2000/svg"
 width="259.000000pt" height="189.000000pt" viewBox="0 0 259.000000 189.000000"
 preserveAspectRatio="xMidYMid meet">

<g transform="translate(0.000000,189.000000) scale(0.100000,-0.100000)"
fill="#000000" stroke="none">
<path d="M0 945 l0 -945 1295 0 1295 0 0 945 0 945 -1295 0 -1295 0 0 -945z
m1600 288 c0 -331 -4 -572 -10 -593 -20 -71 -95 -137 -177 -155 l-33 -7 0 558
c0 393 3 568 12 595 17 59 70 115 131 138 28 11 58 20 65 20 9 1 12 -117 12
-556z m860 0 c0 -363 -4 -571 -11 -596 -19 -71 -93 -134 -176 -152 l-33 -7 0
276 0 276 -294 2 -295 3 18 53 c21 60 59 105 113 133 33 17 60 19 248 19 l210
0 0 183 c0 171 2 185 24 233 27 58 75 100 138 119 24 8 46 14 51 14 4 1 7
-250 7 -556z m-2110 -35 l0 -563 -24 -51 c-32 -68 -83 -107 -168 -128 l-28 -6
0 557 c0 373 4 571 11 598 20 72 116 147 197 154 9 1 12 -118 12 -561z m774
510 c31 -62 35 -141 9 -196 -9 -21 -116 -137 -247 -270 l-230 -232 249 -250
c137 -137 247 -251 245 -253 -60 -48 -148 -66 -220 -47 -39 10 -74 41 -278
243 -247 246 -262 267 -247 340 6 25 86 112 344 373 185 188 339 342 343 342
3 1 18 -21 32 -50z m496 -1374 c0 -8 -9 -14 -20 -14 -11 0 -20 -7 -20 -15 0
-8 7 -15 15 -15 8 0 15 -9 15 -20 0 -11 -7 -20 -15 -20 -12 0 -15 -13 -15 -60
0 -53 -2 -60 -20 -60 -18 0 -20 7 -20 60 0 33 -4 60 -10 60 -5 0 -10 9 -10 20
0 11 4 20 9 20 5 0 11 10 13 22 5 39 78 59 78 22z m-1254 5 c9 -15 -11 -33
-30 -26 -9 4 -13 13 -10 22 7 17 30 20 40 4z m644 -23 c0 -34 1 -35 33 -30 19
3 39 0 50 -8 26 -20 34 -91 13 -123 -14 -22 -23 -24 -76 -24 l-60 1 0 109 c0
102 1 109 20 109 16 0 20 -7 20 -34z m1340 -5 l0 -39 30 11 c50 19 64 2 68
-82 3 -66 1 -71 -18 -71 -18 0 -20 6 -20 60 0 51 -3 60 -18 60 -30 0 -42 -21
-42 -72 0 -41 -3 -48 -20 -48 -19 0 -20 7 -20 110 0 103 1 110 20 110 17 0 20
-7 20 -39z m-2172 -15 l3 -38 35 41 c20 23 44 41 55 41 26 0 24 -7 -16 -52
-21 -23 -33 -44 -28 -51 4 -7 22 -33 41 -59 l34 -48 -29 0 c-22 0 -33 8 -53
40 -14 22 -28 40 -32 40 -5 0 -8 -18 -8 -40 0 -33 -3 -40 -20 -40 -19 0 -20 7
-20 106 0 95 2 105 18 102 12 -2 18 -15 20 -42z m450 1 c3 -36 4 -37 43 -37
39 0 39 0 39 40 0 33 3 40 20 40 19 0 20 -7 20 -105 0 -98 -1 -105 -20 -105
-17 0 -20 7 -20 45 l0 45 -40 0 -40 0 0 -45 c0 -38 -3 -45 -20 -45 -19 0 -20
7 -20 106 0 95 2 105 18 102 12 -2 18 -14 20 -41z m692 23 c0 -11 -7 -20 -15
-20 -22 0 -22 -128 0 -136 8 -4 15 -12 15 -20 0 -10 -14 -14 -50 -14 -38 0
-50 4 -50 15 0 8 7 15 15 15 12 0 15 14 15 70 0 56 -3 70 -15 70 -15 0 -21 21
-8 33 3 4 26 7 50 7 36 0 43 -3 43 -20z m640 0 c0 -16 -7 -20 -30 -20 l-30 0
0 -85 c0 -78 -2 -85 -20 -85 -17 0 -19 8 -22 83 l-3 82 -32 3 c-31 3 -42 19
-26 35 3 4 42 7 85 7 71 0 78 -2 78 -20z m-1592 -113 c3 -72 1 -77 -18 -77
-18 0 -20 6 -20 81 0 71 2 80 18 77 14 -3 17 -16 20 -81z m77 73 c5 -8 11 -7
20 0 22 18 58 8 72 -20 7 -14 13 -49 13 -77 0 -46 -3 -53 -20 -53 -17 0 -20 7
-20 46 0 61 -14 88 -40 74 -16 -9 -20 -21 -20 -65 0 -48 -2 -55 -20 -55 -18 0
-20 7 -20 80 0 63 3 80 14 80 8 0 18 -5 21 -10z m385 -50 c0 -45 4 -62 15 -66
26 -11 44 15 47 69 2 40 7 53 21 55 15 3 17 -6 17 -76 l0 -79 -60 -1 c-71 -1
-80 9 -80 91 0 56 4 67 27 67 9 0 13 -17 13 -60z m565 50 c5 -8 11 -7 20 0 22
18 58 8 72 -20 7 -14 13 -49 13 -77 0 -46 -3 -53 -20 -53 -17 0 -20 7 -20 46
0 61 -14 88 -40 74 -16 -9 -20 -21 -20 -65 0 -48 -2 -55 -20 -55 -18 0 -20 7
-20 80 0 63 3 80 14 80 8 0 18 -5 21 -10z m353 -7 c31 -26 34 -100 6 -127 -20
-21 -83 -20 -106 1 -26 23 -25 96 2 123 25 25 71 26 98 3z m354 0 c10 -9 18
-29 18 -45 0 -27 -2 -28 -50 -28 -27 0 -50 -4 -50 -9 0 -17 30 -33 52 -28 13
4 30 2 38 -3 23 -15 -5 -30 -57 -30 -49 0 -73 25 -73 76 0 68 75 110 122 67z
m159 6 c16 -8 18 -13 9 -24 -9 -10 -17 -12 -30 -5 -28 15 -52 -10 -48 -50 3
-34 5 -35 43 -35 29 0 40 -4 40 -15 0 -11 -13 -16 -47 -18 -39 -3 -49 1 -62
20 -23 32 -21 93 4 118 22 22 60 26 91 9z"/>
<path d="M1027 249 c-26 -15 -23 -76 3 -84 28 -9 50 11 50 46 0 33 -27 52 -53
38z"/>
<path d="M1681 246 c-7 -8 -11 -30 -9 -48 2 -28 7 -33 28 -33 22 0 25 5 28 39
4 50 -22 72 -47 42z"/>
<path d="M2032 247 c-15 -17 -6 -27 25 -27 18 0 24 5 21 17 -4 22 -31 28 -46
10z"/>
</g>
</svg>
